<svg width="24" height="24" viewBox="0 0 24 24" fill="none" xmlns="http://www.w3.org/2000/svg">
<path fill-rule="evenodd" clip-rule="evenodd" d="M7.21629 16.0029C7.05629 16.0029 6.89529 15.9519 6.75929 15.8479C6.43129 15.5949 6.36929 15.1239 6.62229 14.7959L9.61529 10.9059C9.73729 10.7469 9.91829 10.6439 10.1163 10.6189C10.3183 10.5929 10.5163 10.6489 10.6733 10.7739L13.4933 12.9889L15.9603 9.80587C16.2143 9.47687 16.6843 9.41587 17.0123 9.67187C17.3403 9.92587 17.4003 10.3969 17.1463 10.7239L14.2163 14.5039C14.0943 14.6619 13.9143 14.7649 13.7163 14.7889C13.5163 14.8159 13.3183 14.7579 13.1603 14.6349L10.3423 12.4209L7.81129 15.7099C7.66329 15.9019 7.44129 16.0029 7.21629 16.0029Z" fill="#595959"/>
<mask id="mask0" style="mask-type:alpha" maskUnits="userSpaceOnUse" x="17" y="2" width="6" height="6">
<path fill-rule="evenodd" clip-rule="evenodd" d="M17.2954 2H22.6394V7.3449H17.2954V2Z" fill="white"/>
</mask>
<g mask="url(#mask0)">
<path fill-rule="evenodd" clip-rule="evenodd" d="M19.9674 3.5C19.3214 3.5 18.7954 4.025 18.7954 4.672C18.7954 5.318 19.3214 5.845 19.9674 5.845C20.6134 5.845 21.1394 5.318 21.1394 4.672C21.1394 4.025 20.6134 3.5 19.9674 3.5ZM19.9674 7.345C18.4944 7.345 17.2954 6.146 17.2954 4.672C17.2954 3.198 18.4944 2 19.9674 2C21.4414 2 22.6394 3.198 22.6394 4.672C22.6394 6.146 21.4414 7.345 19.9674 7.345Z" fill="#595959"/>
</g>
<mask id="mask1" style="mask-type:alpha" maskUnits="userSpaceOnUse" x="2" y="2" width="20" height="21">
<path fill-rule="evenodd" clip-rule="evenodd" d="M2 2.84204H21.8619V22.703H2V2.84204Z" fill="white"/>
</mask>
<g mask="url(#mask1)">
<path fill-rule="evenodd" clip-rule="evenodd" d="M16.233 22.703H7.629C4.262 22.703 2 20.338 2 16.818V8.73604C2 5.21104 4.262 2.84204 7.629 2.84204H14.897C15.311 2.84204 15.647 3.17804 15.647 3.59204C15.647 4.00604 15.311 4.34204 14.897 4.34204H7.629C5.121 4.34204 3.5 6.06604 3.5 8.73604V16.818C3.5 19.523 5.082 21.203 7.629 21.203H16.233C18.741 21.203 20.362 19.482 20.362 16.818V9.77904C20.362 9.36504 20.698 9.02904 21.112 9.02904C21.526 9.02904 21.862 9.36504 21.862 9.77904V16.818C21.862 20.338 19.6 22.703 16.233 22.703Z" fill="#595959"/>
</g>
</svg>
