<svg width="24" height="24" viewBox="0 0 24 24" fill="none" xmlns="http://www.w3.org/2000/svg">
<path fill-rule="evenodd" clip-rule="evenodd" d="M12.001 16.541C11.587 16.541 11.251 16.205 11.251 15.791V3.75C11.251 3.336 11.587 3 12.001 3C12.415 3 12.751 3.336 12.751 3.75V15.791C12.751 16.205 12.415 16.541 12.001 16.541Z" fill="#595959"/>
<path fill-rule="evenodd" clip-rule="evenodd" d="M12.0011 16.541C11.8021 16.541 11.6101 16.462 11.4701 16.32L8.55407 13.393C8.26207 13.099 8.26307 12.624 8.55607 12.332C8.85007 12.04 9.32407 12.04 9.61607 12.334L12.0011 14.729L14.3861 12.334C14.6781 12.04 15.1521 12.04 15.4461 12.332C15.7391 12.624 15.7401 13.099 15.4481 13.393L12.5321 16.32C12.3921 16.462 12.2001 16.541 12.0011 16.541Z" fill="#595959"/>
<mask id="mask0" style="mask-type:alpha" maskUnits="userSpaceOnUse" x="2" y="7" width="20" height="15">
<path fill-rule="evenodd" clip-rule="evenodd" d="M2.00024 7.73242H22V21.4764H2.00024V7.73242Z" fill="white"/>
</mask>
<g mask="url(#mask0)">
<path fill-rule="evenodd" clip-rule="evenodd" d="M17.5752 21.4764H6.43524C3.99024 21.4764 2.00024 19.4874 2.00024 17.0414V12.1564C2.00024 9.71642 3.98524 7.73242 6.42624 7.73242H7.36724C7.78124 7.73242 8.11724 8.06842 8.11724 8.48242C8.11724 8.89642 7.78124 9.23242 7.36724 9.23242H6.42624C4.81224 9.23242 3.50024 10.5434 3.50024 12.1564V17.0414C3.50024 18.6604 4.81624 19.9764 6.43524 19.9764H17.5752C19.1872 19.9764 20.5002 18.6634 20.5002 17.0514V12.1674C20.5002 10.5484 19.1832 9.23242 17.5662 9.23242H16.6342C16.2202 9.23242 15.8842 8.89642 15.8842 8.48242C15.8842 8.06842 16.2202 7.73242 16.6342 7.73242H17.5662C20.0112 7.73242 22.0002 9.72242 22.0002 12.1674V17.0514C22.0002 19.4914 20.0142 21.4764 17.5752 21.4764Z" fill="#595959"/>
</g>
</svg>
